<svg width="15" height="16" viewBox="0 0 15 16" fill="none" xmlns="http://www.w3.org/2000/svg">
<mask id="mask0_782_161" style="mask-type:luminance" maskUnits="userSpaceOnUse" x="0" y="0" width="15" height="16">
<path d="M0 0H14.4079V15.6905H0V0Z" fill="white"/>
</mask>
<g mask="url(#mask0_782_161)">
<path d="M12.2112 0.786456C13.349 1.53452 14.0341 2.95522 14.3547 4.35077C14.6816 5.74003 14.6376 7.10416 14.4176 8.41799C14.2164 9.74439 13.8456 11.0205 13.1038 12.1332C12.362 13.2458 11.2619 14.1825 9.95443 14.6728C8.63433 15.1757 7.13194 15.2323 5.84328 14.7545C4.56091 14.2705 3.49854 13.2584 2.52419 12.152C1.54355 11.0519 0.650916 9.85754 0.298891 8.48713C-0.0594196 7.11673 0.122879 5.57031 0.751494 4.23762C1.37382 2.90493 2.44876 1.78597 3.72485 1.10077C4.98208 0.421851 6.45304 0.182975 7.97429 0.0886808C9.49554 -0.00561203 11.0734 0.0572494 12.2112 0.786456Z" fill="#473223"/>
</g>
<path fill-rule="evenodd" clip-rule="evenodd" d="M7.42761 2.89844C5.60463 2.89844 4.12109 4.382 4.12109 6.20501C4.12109 7.90525 6.95084 12.2521 7.23843 12.6939C7.2475 12.7079 7.25404 12.7179 7.25789 12.7239C7.2956 12.7804 7.35846 12.8182 7.42761 12.8182C7.49676 12.8182 7.56591 12.7804 7.60362 12.7239C7.6072 12.7183 7.61311 12.7092 7.62122 12.6968C7.89797 12.2711 10.7341 7.90896 10.7341 6.20501C10.7341 4.382 9.2506 2.89844 7.42761 2.89844ZM6.0625 6.28178C6.0625 7.08013 6.71626 7.72762 7.50832 7.72762C8.30666 7.72762 8.96042 7.08013 8.96042 6.28178C8.96042 5.48342 8.30666 4.83594 7.50832 4.83594C6.71626 4.83594 6.0625 5.48342 6.0625 6.28178Z" fill="white"/>
</svg>
