<svg width="15" height="16" viewBox="0 0 15 16" fill="none" xmlns="http://www.w3.org/2000/svg">
<mask id="mask0_783_182" style="mask-type:luminance" maskUnits="userSpaceOnUse" x="0" y="0" width="15" height="16">
<path d="M0 0H14.4833V15.6654H0V0Z" fill="white"/>
</mask>
<g mask="url(#mask0_783_182)">
<path d="M12.2847 0.774111C13.4225 1.51589 14.114 2.94287 14.4346 4.33843C14.7552 5.72769 14.7112 7.08553 14.4974 8.40564C14.29 9.72576 13.9254 11.0082 13.1836 12.1208C12.4356 13.2272 11.3355 14.1701 10.028 14.6605C8.71417 15.1634 7.21178 15.2137 5.92312 14.7422C4.64074 14.2582 3.57209 13.2461 2.59774 12.1334C1.62339 11.0333 0.730752 9.8452 0.378727 8.47479C0.0204165 7.10438 0.196428 5.55796 0.825044 4.21899C1.45366 2.8863 2.52859 1.76734 3.7984 1.08842C5.06191 0.409508 6.52659 0.164342 8.05412 0.0763355C9.57537 -0.0242448 11.1469 0.0386183 12.2847 0.774111Z" fill="#7DB720"/>
</g>
<mask id="mask1_783_182" style="mask-type:luminance" maskUnits="userSpaceOnUse" x="3" y="5" width="10" height="7">
<path d="M3.58984 5.0625H12.0384V11.0973H3.58984V5.0625Z" fill="white"/>
</mask>
<g mask="url(#mask1_783_182)">
<path fill-rule="evenodd" clip-rule="evenodd" d="M3.58984 5.5654V10.3555C3.58984 10.5253 3.73442 10.6636 3.90415 10.6636H11.9944C12.1642 10.6636 12.3025 10.5253 12.3025 10.3555V5.5654L8.10959 8.1302C8.00901 8.19306 7.88958 8.19306 7.789 8.1302L3.58984 5.5654ZM7.94615 7.50157L3.96073 5.0625H11.9379L7.94615 7.50157Z" fill="white"/>
</g>
</svg>
