<svg width="15" height="16" viewBox="0 0 15 16" fill="none" xmlns="http://www.w3.org/2000/svg">
<mask id="mask0_779_197" style="mask-type:luminance" maskUnits="userSpaceOnUse" x="0" y="0" width="15" height="16">
<path d="M0 0H14.4079V15.6654H0V0Z" fill="white"/>
</mask>
<g mask="url(#mask0_779_197)">
<path d="M12.2112 0.766299C13.349 1.50808 14.0341 2.93506 14.3547 4.33061C14.6816 5.71988 14.6376 7.07771 14.4176 8.39783C14.2164 9.71795 13.8456 11.0003 13.1038 12.113C12.362 13.2194 11.2619 14.1623 9.95443 14.6527C8.63433 15.1556 7.13194 15.2059 5.84328 14.7344C4.56091 14.2503 3.49854 13.2383 2.52419 12.1256C1.54355 11.0255 0.650916 9.83739 0.298891 8.46698C-0.0594196 7.09657 0.122879 5.55015 0.751494 4.21117C1.37382 2.87848 2.44876 1.75953 3.72485 1.08061C4.98208 0.401695 6.45304 0.15653 7.97429 0.068523C9.49554 -0.0320573 11.0734 0.0308058 12.2112 0.766299Z" fill="#F0C509"/>
</g>
</svg>
