<svg width="15" height="16" viewBox="0 0 15 16" fill="none" xmlns="http://www.w3.org/2000/svg">
<mask id="mask0_783_171" style="mask-type:luminance" maskUnits="userSpaceOnUse" x="0" y="0" width="15" height="16">
<path d="M0 0H14.4833V15.6905H0V0Z" fill="white"/>
</mask>
<g mask="url(#mask0_783_171)">
<path d="M12.2847 0.805361C13.4225 1.54714 14.114 2.97412 14.4346 4.36968C14.7552 5.75894 14.7112 7.11678 14.4974 8.43689C14.29 9.75701 13.9254 11.0394 13.1836 12.1521C12.4356 13.2585 11.3355 14.2014 10.028 14.6917C8.71417 15.1946 7.21178 15.2449 5.92312 14.7734C4.64074 14.2894 3.57209 13.2773 2.59774 12.1646C1.62339 11.0646 0.730752 9.87645 0.378727 8.50604C0.0204165 7.13563 0.196428 5.58921 0.825044 4.25024C1.45366 2.91755 2.52859 1.79859 3.7984 1.11967C5.06191 0.440758 6.52659 0.195594 8.05412 0.107586C9.57537 0.00700541 11.1469 0.0698669 12.2847 0.805361Z" fill="#EF0D0F"/>
</g>
<mask id="mask1_783_171" style="mask-type:luminance" maskUnits="userSpaceOnUse" x="2" y="3" width="11" height="10">
<path d="M2.73438 3.11719H12.3899V12.7729H2.73438V3.11719Z" fill="white"/>
</mask>
<g mask="url(#mask1_783_171)">
<path d="M6.66523 12.3266C6.62751 12.314 6.55836 12.2951 6.51436 12.2951C6.38235 12.2951 5.5903 12.0437 5.43943 11.9557C5.37028 11.918 5.19427 11.8237 5.05597 11.7482C4.67252 11.5408 4.15705 11.0945 3.82389 10.6921C3.54101 10.3464 3.10727 9.61719 3.05698 9.39088C3.0444 9.34059 2.99411 9.16458 2.94383 9.00113C2.78667 8.51709 2.73638 7.78789 2.81182 7.11525C2.89354 6.37976 3.27699 5.45568 3.71702 4.92763C3.79874 4.83334 3.89303 4.7139 3.93075 4.6699C4.01247 4.56932 4.2262 4.3493 4.33307 4.26757C4.37707 4.22986 4.49022 4.13556 4.5908 4.05384C4.68509 3.97841 4.8171 3.87783 4.87996 3.84011C5.20684 3.64523 5.61544 3.43779 5.74745 3.40007C6.60865 3.14233 6.76581 3.11719 7.38814 3.11719C7.85331 3.11719 8.31849 3.16748 8.52593 3.23663C8.60136 3.26177 8.76481 3.31206 8.89681 3.34978C9.13569 3.41893 9.46257 3.5698 9.78945 3.76467C9.88374 3.82125 9.97175 3.86525 9.97803 3.86525C9.99061 3.86525 10.0912 3.94069 10.198 4.03498C10.3049 4.12928 10.4621 4.26129 10.5501 4.33044C10.7512 4.49388 11.2541 5.11622 11.405 5.39282C11.4679 5.51854 11.5621 5.68199 11.6061 5.76371C11.6942 5.92086 11.9016 6.55578 11.9582 6.83237C12.021 7.13411 12.0273 8.20278 11.9707 8.52966C11.7759 9.67377 11.1913 10.6544 10.2483 11.4151C10.0095 11.6037 9.91517 11.6602 9.43114 11.9242C9.19855 12.05 8.74595 12.2008 8.36878 12.2826C8.11105 12.3391 6.76581 12.3769 6.66523 12.3266ZM8.14876 11.8111C8.57622 11.5974 9.04768 11.1007 9.33056 10.579C9.39342 10.4595 9.44371 10.3401 9.43114 10.315C9.40599 10.2521 7.61444 10.2458 7.55158 10.3087C7.51386 10.3464 7.495 11.9117 7.53272 11.9494C7.58929 11.9997 7.92875 11.9242 8.14876 11.8111ZM7.1304 11.151C7.13669 10.7299 7.1304 10.3527 7.11783 10.3213C7.09269 10.2647 7.06754 10.2584 6.89782 10.2772C6.79095 10.2898 6.38235 10.2961 5.9989 10.2961C5.32628 10.2961 5.29485 10.3024 5.29485 10.359C5.29485 10.3967 5.30742 10.4344 5.32628 10.4407C5.33885 10.4533 5.38914 10.535 5.43943 10.6293C5.77888 11.283 6.55836 11.9494 6.96696 11.9305L7.11155 11.9242L7.1304 11.151ZM9.29284 11.5785C9.38713 11.5219 9.53172 11.4339 9.61344 11.3899C9.97175 11.2076 10.8392 10.3967 10.7764 10.3024C10.7512 10.2521 9.94032 10.2584 9.9026 10.3087C9.88374 10.3275 9.79573 10.4973 9.70144 10.6733C9.61344 10.8556 9.41856 11.1448 9.28027 11.3271C9.14197 11.5031 9.02882 11.6602 9.02882 11.6665C9.02882 11.7105 9.14826 11.6728 9.29284 11.5785ZM5.61544 11.5282C5.5903 11.4968 5.47715 11.3522 5.37028 11.2076C5.26342 11.063 5.11255 10.8304 5.03712 10.6796C4.83596 10.2772 4.86739 10.2961 4.42107 10.2961C4.10048 10.2961 4.0439 10.3087 4.0439 10.3464C4.0439 10.4093 4.60966 10.9813 4.8611 11.1699C5.2697 11.4779 5.74116 11.7042 5.61544 11.5282ZM4.67252 9.88121C4.6788 9.86235 4.66623 9.78063 4.64109 9.71148C4.55937 9.49146 4.40221 8.63653 4.38336 8.29079C4.37078 8.12106 4.34564 7.95761 4.32678 7.93247C4.30164 7.89475 4.17591 7.88847 3.7736 7.88847C3.48444 7.88847 3.23299 7.90104 3.20784 7.9199C3.06955 8.0079 3.28956 9.05771 3.55358 9.57318C3.7296 9.92522 3.71074 9.91264 4.21363 9.91264C4.49022 9.91264 4.65366 9.90007 4.67252 9.88121ZM7.1304 9.83092C7.14926 9.78063 7.15555 9.37831 7.15555 8.82512L7.14298 7.90104L5.98632 7.89475C5.35142 7.88847 4.81081 7.90104 4.78567 7.91361C4.74795 7.93876 4.74167 8.0079 4.7731 8.35994C4.82967 9.01999 5.02454 9.81206 5.14398 9.8875C5.16284 9.90007 5.61544 9.91264 6.13719 9.91264H7.09897L7.1304 9.83092ZM9.65115 9.80578C9.82717 9.5229 10.0786 7.97647 9.95917 7.90104C9.90889 7.86961 7.60187 7.88218 7.57044 7.91361C7.54529 7.94504 7.50129 9.69262 7.52643 9.7932L7.54529 9.88121H9.60086L9.65115 9.80578ZM11.1033 9.80578C11.2353 9.66119 11.3421 9.4286 11.4679 9.01999C11.6124 8.53595 11.7004 7.92618 11.625 7.88218C11.5559 7.83817 10.4935 7.85075 10.4306 7.89475C10.3929 7.92618 10.3741 8.02676 10.3489 8.34736C10.3112 8.79997 10.2043 9.41603 10.1352 9.58576C10.11 9.64234 10.0849 9.73034 10.0849 9.78692V9.88121H10.5626C11.0215 9.88121 11.0467 9.87493 11.1033 9.80578ZM4.33935 7.46729C4.3645 7.43585 4.38336 7.30384 4.38964 7.17183C4.40221 6.83866 4.57194 5.92086 4.64737 5.76999C4.71024 5.65055 4.66623 5.63798 4.20106 5.63798C3.79874 5.63798 3.74217 5.64427 3.68559 5.70084C3.59759 5.78885 3.47815 6.0403 3.37757 6.34833C3.33357 6.49291 3.2707 6.67522 3.24556 6.75065C3.1827 6.96438 3.15127 7.42328 3.20784 7.48614C3.23927 7.53015 3.32728 7.53643 3.7736 7.53015C4.23249 7.52386 4.30792 7.51129 4.33935 7.46729ZM7.16184 6.59978C7.16812 6.11574 7.16183 5.69456 7.14926 5.6757C7.1304 5.64427 6.88525 5.63798 6.13719 5.63798C5.59658 5.63798 5.13769 5.64427 5.11884 5.65684C5.05597 5.70084 4.96797 5.95858 4.89253 6.33576C4.81081 6.72551 4.73538 7.37928 4.76052 7.45471C4.7731 7.49243 4.9554 7.49872 5.96118 7.49243L7.14298 7.48614L7.16184 6.59978ZM9.95289 7.461C10.0346 7.36042 9.86488 6.22889 9.71401 5.814L9.65115 5.65055H7.56415L7.54529 6.53063C7.53901 7.01467 7.539 7.42957 7.55786 7.45471C7.58929 7.51758 9.9026 7.52386 9.95289 7.461ZM11.6061 7.461C11.6564 7.42328 11.6564 7.39185 11.6187 7.11525C11.5496 6.59349 11.2353 5.74485 11.0718 5.62541C11.0152 5.58769 10.1226 5.61912 10.0849 5.65684C10.0535 5.68827 10.0598 5.72599 10.1038 5.80771C10.1289 5.87686 10.1792 6.04659 10.2043 6.19117C10.2295 6.33576 10.2609 6.50549 10.2798 6.56835C10.2986 6.63121 10.3238 6.84494 10.3363 7.04611C10.3489 7.29127 10.3678 7.42328 10.3992 7.45471C10.4621 7.51758 11.5307 7.52386 11.6061 7.461ZM4.78567 5.24195C4.8171 5.2168 4.91768 5.04707 5.01197 4.86477C5.10626 4.67618 5.28856 4.38701 5.41428 4.22357C5.55258 4.05384 5.64059 3.90926 5.62173 3.8904C5.5903 3.85897 5.05597 4.16071 4.79824 4.36815C4.42736 4.66361 3.96218 5.16651 3.98733 5.23566C4.01247 5.29852 4.71024 5.30481 4.78567 5.24195ZM7.14926 5.21051C7.18069 5.18537 7.19327 5.00307 7.19327 4.36187V3.54465L7.11155 3.52579C7.00468 3.50065 6.91668 3.52579 6.62751 3.65781C6.33206 3.7961 5.96747 4.11042 5.71602 4.4373C5.48343 4.75162 5.23199 5.21052 5.28228 5.24195C5.34514 5.27966 7.09897 5.25452 7.14926 5.21051ZM9.45628 5.22309C9.48143 5.17908 9.21112 4.68875 9.01625 4.43102C8.76481 4.09785 8.44421 3.82754 8.13619 3.67667C7.83445 3.52579 7.74016 3.50065 7.65216 3.52579C7.59558 3.54465 7.58929 3.59494 7.56415 4.35558C7.55158 4.9402 7.55786 5.1728 7.58301 5.20423C7.61444 5.24195 7.79674 5.24823 8.53222 5.24823C9.02882 5.24823 9.45 5.23566 9.45628 5.22309ZM10.8078 5.22309C10.833 5.17908 10.4558 4.75162 10.2106 4.53788C9.89631 4.26129 9.77059 4.17328 9.51286 4.04127L9.17969 3.85897C9.12311 3.82753 9.06654 3.80239 9.05397 3.80239C9.01625 3.80239 9.14197 3.99726 9.33685 4.24243C9.44371 4.36815 9.61344 4.64475 9.7203 4.84591C9.82088 5.04707 9.93403 5.22309 9.95917 5.22937C10.0535 5.25452 10.7889 5.24823 10.8078 5.22309Z" fill="white"/>
</g>
</svg>
